<svg xmlns="http://www.w3.org/2000/svg" viewBox="0 0 2710.71 2274.38"><defs><style>.cls-1{fill:#ef7625;}.cls-2{fill:#5b0101;}.cls-3{fill:#ffd00d;}.cls-4{fill:#ff931d;}.cls-5{opacity:0.55;}.cls-6{fill:#fff;}.cls-7{fill:#f9a43e;}.cls-8{fill:#c41010;}.cls-9{fill:#ea2d2d;}.cls-10{fill:#96af02;}</style></defs><g id="Camada_2" data-name="Camada 2"><g id="Layer_1" data-name="Layer 1"><path class="cls-1" d="M66.86,1979c28,99,101.65,136.11,214,120.6,766.38-194.34,1519.53-355.23,2233.51-417.15l-214-459.69L715.85,1612.19Z"/><path class="cls-2" d="M235,2126.1c-123,0-171.6-74.26-190.44-140.82a23.19,23.19,0,0,1,10.91-26.52l649-366.77a22.94,22.94,0,0,1,5.87-2.34l1584.52-389.46a23.2,23.2,0,0,1,26.57,12.74l214,459.68a23.21,23.21,0,0,1-19,32.92c-617.21,53.52-1304.9,182-2229.81,416.52a24.59,24.59,0,0,1-2.53.5A359.81,359.81,0,0,1,235,2126.1ZM94.8,1989.82c27.05,72.23,85.29,99.92,181.65,86.92,910.42-230.83,1591.89-359.13,2203-414.52l-192-412.41L724.49,1634Z"/><path class="cls-3" d="M2397,1557.59l-25.88,96.65c-26.22-7-53-13.29-80.12-18.85-232-48.16-484-43.52-579.85,72.92-50.94,70.72-124.15,53.37-190.4,32.6-85.11-26.63-178.92,1.51-233.57,72-36.32,46.82-55.23,105.93-58.13,167-11.2,139.23-203.63,140.39-202.53,13.8,8.94-89.28-4.64-193.48-106.34-143.24-38.06,14.39-106.22,72.17-154.43,160.82a457.13,457.13,0,0,0-38.41,93.46c-63.29,223.82-286.65,164.42-246.27,0,10.15-103.09-43.22-141.84-138.54-138h-.06q-106,32.63-216.57,62.48c-64.8,17.29-121.88-46.59-96.76-108.72q28.62-70.67,59.11-138.83c.06-.06.06-.06.06-.12C352.49,1191.17,721,738.77,1122.46,371.42q67.35-61.69,135.93-120.2c2.09-1.86,4.23-3.66,6.32-5.46,4.58,2.56,9.17,5.17,13.69,7.84C1744.61,520.81,2062,947.1,2327.77,1428.74Q2362.93,1492.52,2397,1557.59Z"/><path class="cls-4" d="M1444.51,906.37c-60.35-16.6-109.81-12.25-147,12.93-40.69,27.56-65.57,79.46-74,154.25a14.5,14.5,0,0,0,13.31,16.08q31.39,2.38,58.15,2.39c80.21,0,130.25-16.16,155.54-49.69,22.55-29.89,23.79-72.62,3.68-127A14.49,14.49,0,0,0,1444.51,906.37Z"/><path class="cls-4" d="M1024.88,1424.48c-42.61-29.93-82.76-40.35-119.32-31-39.89,10.25-74,43.83-101.45,99.82a16.28,16.28,0,0,0,8,22c53.43,23.84,95.67,35.63,128.69,35.63,20.59,0,37.6-4.58,51.49-13.7,26.73-17.53,40-51.07,39.53-99.67A16.24,16.24,0,0,0,1024.88,1424.48Z"/><path class="cls-4" d="M1367.2,649.77c23.83-15.64,35.69-45.54,35.25-88.88a14.53,14.53,0,0,0-6.17-11.72c-38-26.69-73.82-36-106.42-27.6-35.57,9.14-66,39.09-90.46,89a14.5,14.5,0,0,0,7.11,19.62c47.65,21.26,85.32,31.78,114.77,31.78C1339.64,662,1354.8,657.9,1367.2,649.77Z"/><path class="cls-4" d="M929.68,1149.26a14.5,14.5,0,0,0,7.12-19.62c-24.46-49.93-54.9-79.88-90.47-89-32.61-8.38-68.41.91-106.41,27.6a14.49,14.49,0,0,0-6.17,11.72c-.44,43.34,11.42,73.25,35.25,88.88,12.39,8.14,27.56,12.23,45.92,12.23C844.37,1181.05,882,1170.52,929.68,1149.26Z"/><path class="cls-4" d="M2064.49,1394.63c-24.46-49.93-54.9-79.87-90.47-89-32.62-8.4-68.42.9-106.42,27.59a14.56,14.56,0,0,0-6.17,11.73c-.44,43.34,11.43,73.24,35.26,88.88,12.39,8.13,27.55,12.22,45.91,12.22,29.45,0,67.13-10.52,114.77-31.78a14.5,14.5,0,0,0,7.12-19.63Z"/><path class="cls-4" d="M833.77,706.79C693.23,764.23,603.9,871,634.26,945.28l31.62,77.37c30.36,74.27,168.9,87.92,309.44,30.48s229.86-164.21,199.51-238.49l-31.62-77.37C1112.85,663,974.31,649.35,833.77,706.79Z"/><path class="cls-4" d="M1458.7,1203.61c-141.57-2.67-257.48,55.82-258.89,130.64l-1.47,77.93c-1.41,74.82,112.21,137.63,253.78,140.3s257.47-55.82,258.88-130.63l1.47-77.94C1713.88,1269.1,1600.26,1206.28,1458.7,1203.61Z"/><path class="cls-4" d="M464.48,1301.17c-118.18,85.23-169.36,216.21-114.31,292.55l57.35,79.52c55.05,76.35,195.49,69.15,313.67-16.08S890.56,1441,835.51,1364.61l-57.35-79.52C723.11,1208.74,582.67,1216,464.48,1301.17Z"/><path class="cls-4" d="M2339.49,1543.49c-298.66-64.63-709.93-23.79-1280.15,166l-288.27,47.75c-43.28,9.22-134.66,34-230.84,61.14-3.37-3.48-5.05-5.33-5.05-5.33,330.33-106.58,682.71-204.1,960.83-275,258.92-43.63,500.44-87.55,543.72-135.81-192.73-405.82-514-738.12-911.35-1027l-5.92-3.83q67.35-61.69,135.93-120.2c6.61.75,13.28,1.56,20,2.38C1744.61,520.81,2062,947.1,2327.77,1428.74,2338.15,1480.66,2342.68,1520.86,2339.49,1543.49Z"/><g class="cls-5"><path class="cls-6" d="M1727,597.68c-124.56-114.29-261.13-215.7-412.72-301C840.16,701.06,397.8,1207.88,91,1893.72c0,.06,0,.06-.06.12q-24.36,54.3-47.45,110.23c-19-21.53-26.75-52.8-14.27-83.6q28.62-70.67,59.11-138.83c.06-.06.06-.06.06-.12C383.41,1122,808.77,634.69,1264.71,245.76,1437.54,343.05,1590.06,462.1,1727,597.68Z"/></g><path class="cls-4" d="M1059.34,1709.47l-288.27,47.75C658,1781.35,217.9,1911.65,217.9,1911.65,103.43,1950,56,1883.28,88.29,1781.64q-30.54,68.13-59.11,138.83c-25.12,62.13,32,126,96.76,108.72q110.79-29.68,216.57-62.48h.06c95.32-3.83,148.69,34.92,138.54,138-40.38,164.42,183,223.82,246.27,0,40.26-141,142.66-235.3,192.84-254.28,101.7-50.24,115.28,54,106.34,143.24-1.1,126.59,191.33,125.43,202.53-13.8,2.9-61,21.81-120.15,58.13-167,54.65-70.49,148.46-98.63,233.57-72,66.25,20.77,139.46,38.12,190.4-32.6,107-130,408.83-120.61,660-54.07l25.88-96.65C2094.32,1474.11,1667.1,1507.23,1059.34,1709.47ZM653.88,2112.21c-3.78,14.62-11.49,28.31-23.38,37.65-38.76,30.34-96.42,6.44-76.47-62,18.1-83.72-14.09-96.42-42.29-145,97.52-5.16,179.44-41.48,244.24-47.46C704.17,1967.46,672.44,2039.75,653.88,2112.21Zm479.66-136.92c-39.68,29.76-45-130.3-101.24-165.69,56.8,7,112.67-.52,166.85-35.68C1199.15,1773.92,1173.28,1945.53,1133.54,1975.29Z"/><path class="cls-2" d="M579,2274.38a129.49,129.49,0,0,1-33.08-4.26c-60-15.84-109.13-79-87.76-169.24,3.59-39-2.94-67.69-19.45-85.18-17.49-18.54-48.6-27.26-92.33-25.91-74.29,22.84-144.48,43.07-214.44,61.81A104.39,104.39,0,0,1,26.2,2019.7,103.53,103.53,0,0,1,7.66,1911.77c259.57-641.47,665.83-1192.2,1242-1683.66a23.2,23.2,0,0,1,26.45-2.57c243.78,137.27,459.66,323.14,660,568.23,164.76,201.6,317.77,440.88,481.53,753a23.23,23.23,0,0,1,1.87,16.78l-25.88,96.65a23.21,23.21,0,0,1-28.36,16.43c-236.07-62.54-535.43-74.81-635.67,45.86-64,88.09-158.94,58.32-215.71,40.53-76.34-23.9-160,1.85-208.28,64.07-32,41.31-50.47,94.5-53.29,153.85,0,.25,0,.5,0,.75-7,87.71-75.17,130.74-139,127.89-53.35-2.38-110.48-39.73-109.81-116.14,0-.7,0-1.41.11-2.11,6.45-64.52-1.68-113-21.24-126.56-13.31-9.22-35.48-1.59-51.73,6.44a19.92,19.92,0,0,1-2.07.9C886.59,1888,788,1977,749.69,2111.1,717,2226.87,643.9,2274.37,579,2274.38ZM354.68,1943.25c52.77,0,92.35,13.63,117.8,40.6,26.35,27.92,37,69.36,31.73,123.15a24.17,24.17,0,0,1-.57,3.26c-16,65.32,15.63,104.82,54.14,115,49.93,13.16,117.31-20.89,147.27-126.84,41.56-145.52,146.91-246.22,205.88-269.25,39.46-19.25,72.34-20.1,97.73-2.5,44.5,30.82,47,108.24,41.1,168.21.06,48.3,35.21,67,65.47,68.38,40.09,1.79,85.63-24,90.7-84.88,3.34-68.76,25.11-130.89,63-179.68,60-77.46,164.06-109.57,258.84-79.92,78,24.44,127.27,27.85,164.64-24,.29-.41.6-.8.91-1.19,53.53-65,154.77-102.76,292.79-109.17,110-5.12,240.05,9.65,368.63,41.66l17.59-65.7C2142.15,1122.84,1809.15,585,1267.41,274,703.63,757.8,305.52,1299.4,50.69,1929.17A56.63,56.63,0,0,0,61,1989a57.51,57.51,0,0,0,59,17.8c70.31-18.84,140.88-39.2,215.73-62.24a23,23,0,0,1,6.22-1Q348.42,1943.26,354.68,1943.25Z"/><path class="cls-2" d="M2390.87,1580c-15.69-3.53-46-11.29-60.87-14.39-20.31-3.52-41.48-8.09-61.66-11.13-15.6-2-47.36-6.59-62.24-8.15-12.64-1.07-49.38-4.3-62.66-5.42a2046,2046,0,0,0-210.3-.18c-296.94,17.27-587.66,89.73-872,174.28a5.8,5.8,0,0,1-3.67-11c107.1-38.62,215.47-74,325.29-105,150.59-41.66,306.71-75.69,461.85-93.8,186.19-20.68,376.26-20.36,558.57,30,29.16,8.87,17.85,52-12.34,44.74Z"/><path class="cls-2" d="M110.46,1788.56c-17.15,55.71-13.36,119.22,61.64,110.29,15.45-1.23,31.39-6,46.38-10.36l49.75-13.77c164.94-44.18,333.92-90.92,501.63-123.19a5.8,5.8,0,0,1,2.42,11.34c-56.62,15.54-139.85,42.23-197,59.89-94.13,29.42-252,79.6-344.29,108-17.47,5.72-35.3,11.47-53.74,13.6-109.18,12.71-142.66-79.37-111-169.89,10.39-28.76,52.38-15.28,44.23,14.07Z"/><path class="cls-7" d="M2297.48,1574.93a226.6,226.6,0,0,1-17.63-50.7c-.7-3.08-1.34-6.15-1.92-9.28C1976.2,999.49,1635.6,566.47,1198.75,338.07c-8.36-4.41-16.71-8.65-25.12-12.88-57-189.89,96.3-362.48,324.12-281.37C1898.4,218.15,2624.63,778.28,2686.47,1457.57,2707.82,1692.41,2389.44,1762.67,2297.48,1574.93Z"/><g class="cls-5"><path class="cls-6" d="M2657,1588.92c6-23,8.24-48.39,5.74-76.12-37.13-408-314-773.1-616-1037.3-199.63,17.41-301.5-88.76-352-259.73-79.48-48.62-154.5-88-220.63-116.72-143.82-51.17-257.94-1.28-308.18,90.21C1199.56,69.57,1326.32-6.89,1493,52.46c400.65,174.33,1126.87,734.46,1188.71,1413.76C2686.06,1514.25,2676.2,1555.44,2657,1588.92Z"/></g><path class="cls-1" d="M2437.59,1648.21c-40.55-4.7-79.6-21.12-114.81-44.91l-25.3-28.37a226.6,226.6,0,0,1-17.63-50.7c-.7-3.08-1.34-6.15-1.92-9.28C1976.2,999.49,1635.6,566.47,1198.75,338.07c-2-25.53-9.23-156.47,52.15-206.19C1708.46,439,2016.17,915.48,2379.75,1294.09c104.25-41.48,195.74-11,241.16,59.58C2707.47,1488.2,2596.49,1666.6,2437.59,1648.21Z"/><path class="cls-2" d="M2476.62,1705.52c-92.57,0-191.5-51.74-219.44-176.23-.45-2-.88-4-1.29-6.08-356.67-608.5-703.95-982.67-1092.66-1177.28a23.19,23.19,0,0,1-11.83-14.09c-29.85-99.49-6.28-201.35,61.53-265.8C1285-2.51,1391.68-18.57,1505.53,22c.5.18,1,.37,1.48.58C1692.55,103.3,1981.44,283,2235.82,545.2c196.79,202.85,438.73,525.43,473.74,910.28,13.34,146.65-91.63,230.87-194.81,247.08A246.63,246.63,0,0,1,2476.62,1705.52ZM1193.2,309.06C1587.32,509.5,1938.6,889.29,2298,1503.19a23.6,23.6,0,0,1,2.79,7.53q.78,4.24,1.72,8.4c25.43,113.3,121.33,150.74,205.09,137.59,85.24-13.39,166.47-79.5,155.78-197-63.18-694.44-817.8-1238.9-1174.11-1394.25-96.5-34.13-185.51-21.67-244.33,34.25C1191.12,150.8,1172.12,228.5,1193.2,309.06Z"/><path class="cls-2" d="M2254.75,1513.78c4.11-184.89,273.2-291.41,360-101.71a271.39,271.39,0,0,1,18.56,65.43,10.47,10.47,0,0,1-20.33,4.81c-7.15-19.73-15-38.83-25.44-56-30.44-51.41-84-79.29-143-66-73,15-137.14,80.65-143.43,155.81-3.28,29.44-45.93,27.34-46.36-2.28Z"/><path class="cls-2" d="M1385.31,320.09c-3.57-63.75,53.5-125.49,117.33-126.77,6.7-.3,8.63,9.38,2.35,11.65-42.9,14.41-77.31,48.3-95.5,89.44a150.9,150.9,0,0,0-9.88,28.95,7.12,7.12,0,0,1-8.49,5.41c-4.19-.86-5.8-4.88-5.81-8.68Z"/><path class="cls-2" d="M1441.25,325c-3.09-36.26,31.9-69.61,67.59-67.84,5.51,0,7.46,7.65,2.72,10.3a144.06,144.06,0,0,0-46.76,45.4,135,135,0,0,0-10.66,19.13,6.48,6.48,0,0,1-8.64,3.08c-4-1.58-3.82-6.62-4.25-10.07Z"/><path class="cls-2" d="M2117.12,1265.35c-6.86-125.43,89.48-250.44,221.87-238.62a6.27,6.27,0,0,1,6.6,6.7,6.11,6.11,0,0,1-5.6,5.56c-89.64,5.51-157.36,63.22-188.29,145.91-10.14,26-17.39,54.12-20,81.68-1.15,9.47-14.82,8.38-14.62-1.23Z"/><path class="cls-2" d="M2273.23,1110.08c35-51.3,115.27-59.26,163.87-23.35,5.31,3.79,1.21,12.4-5,10.7-44-14.25-93.61-10.41-133.81,13a124.18,124.18,0,0,0-15.64,10.94,7.13,7.13,0,0,1-10-.82c-2.82-3.23-1.66-7.4.64-10.44Z"/><path class="cls-8" d="M805.75,638.23C665.21,695.67,575.88,802.45,606.24,876.72l31.62,77.37c30.36,74.28,168.9,87.93,309.44,30.49s229.87-164.22,199.51-238.49l-31.62-77.37C1084.83,594.44,946.29,580.79,805.75,638.23Z"/><ellipse class="cls-9" cx="856.2" cy="761.67" rx="274.91" ry="133.35" transform="translate(-224.52 380.53) rotate(-22.23)"/><g class="cls-5"><path class="cls-6" d="M1111.4,659.46a68.58,68.58,0,0,1,4.85,30.29c-38.75-56.47-166.68-60.66-298.1-7C697.23,732.22,612.72,814.55,609.28,880a61.8,61.8,0,0,1-6.82-12.5c-27.84-68.14,63.45-169.92,204-227.38S1083.55,591.32,1111.4,659.46Z"/></g><path class="cls-2" d="M780.51,1037.53q-15.88,0-31-1.48c-65.17-6.42-110.56-33.19-127.8-75.37l-31.62-77.37c-34.51-84.45,57.31-199.18,209-261.19,70.54-28.83,143.13-41.39,204.32-35.36,65.18,6.42,110.57,33.19,127.81,75.37l31.62,77.37c34.51,84.45-57.31,199.18-209,261.19C894.9,1024.79,834.5,1037.53,780.51,1037.53ZM972.35,620.08c-49.41,0-105.16,11.84-160,34.26-129.2,52.81-216.2,151.63-190,215.8L654,947.51c12.12,29.66,47.28,48.8,99,53.9,55.65,5.47,122.34-6.22,187.75-32.94,129.2-52.81,216.2-151.63,190-215.8l-31.62-77.37c-12.12-29.66-47.29-48.8-99-53.9C991.11,620.52,981.84,620.08,972.35,620.08Z"/><path class="cls-2" d="M865.08,910.55C803.1,932,730.51,943.79,668.85,913c-81.24-46.35-49.22-136.42,5.67-189.69C738.2,660.71,823.62,622.64,911.62,611c45.37-5,92.41-4,134.65,17.8,35.26,17.46,57.37,54.81,50.08,94.38-7.22,40.32-35.16,72.32-64.52,97.9-11.4,9.93-27,20.41-39.88,28.42-7.34,4.46-14.2-6-7.32-11,49.54-34,126-111.05,74.66-171.31-62.87-59.46-192.87-27.93-263.29,5.41-55.21,26.56-109.4,64.14-138.82,118.83C637.17,828.65,642.24,870.8,681,892c54.82,28.61,121.73,19.3,179.7,3.43,10.07-2.63,14.22,12,4.36,15.14Z"/><ellipse class="cls-8" cx="775.52" cy="818.4" rx="49.14" ry="22" transform="translate(-251.98 354.22) rotate(-22.23)"/><ellipse class="cls-8" cx="847.91" cy="722.56" rx="42.73" ry="17.8" transform="translate(-210.34 374.49) rotate(-22.23)"/><ellipse class="cls-8" cx="906.42" cy="770.67" rx="43.09" ry="16.65" transform="translate(-224.19 400.2) rotate(-22.23)"/><path class="cls-8" d="M980.77,697.5c.74,1.82-2.34,4.8-6.89,6.66s-8.85,1.89-9.59.07,2.34-4.8,6.89-6.66S980,695.67,980.77,697.5Z"/><path class="cls-8" d="M1481.16,1130.21c-141.57-2.67-257.47,55.82-258.88,130.63l-1.47,77.94c-1.41,74.82,112.21,137.63,253.77,140.3s257.48-55.82,258.89-130.64l1.47-77.93C1736.35,1195.69,1622.73,1132.88,1481.16,1130.21Z"/><ellipse class="cls-9" cx="1478.82" cy="1254.54" rx="124.36" ry="256.37" transform="translate(196.62 2709.45) rotate(-88.92)"/><g class="cls-5"><path class="cls-6" d="M1735.11,1261.19a63.93,63.93,0,0,1-7,27.73c-12.35-62.66-120.38-113.46-252.76-116-121.8-2.3-224.56,37-251.65,91.78a58.54,58.54,0,0,1-1.22-13.22c1.29-68.63,117-122.12,258.67-119.45S1736.4,1192.55,1735.11,1261.19Z"/></g><path class="cls-2" d="M1483.92,1496.57q-4.82,0-9.66-.09c-71.25-1.34-138.24-17.42-188.6-45.27-53.85-29.77-83.07-69.81-82.25-112.76l1.47-77.93c.81-43,31.5-81.87,86.44-109.59,51.38-25.93,118.94-39.47,190.17-38.12,153.49,2.89,272.46,72.31,270.85,158l-1.47,77.93c-.81,43-31.51,81.87-86.44,109.59C1615.37,1483.11,1551.59,1496.57,1483.92,1496.57Zm-12.17-349c-62.28,0-120.48,12.15-164.75,34.49-42.86,21.62-66.77,49.74-67.32,79.16l-1.47,77.94c-.56,29.42,22.28,58.42,64.29,81.64,45.5,25.15,106.73,39.69,172.41,40.93,65.87,1.3,127.43-11,173.83-34.4,42.86-21.63,66.77-49.74,67.33-79.16l1.47-77.94c1.2-64-107.2-120.13-236.71-122.57h0C1477.8,1147.55,1474.76,1147.52,1471.75,1147.52Z"/><path class="cls-2" d="M1431.42,1385.86c-60.27-4.09-129.22-21.25-169.74-70.29-53.14-70.75,7.64-136.28,75.22-162.24,94.41-36.6,214-32.51,303.78,15.35,38,20.54,79,60.61,71.49,108.61-10.61,62.44-79.48,89.78-134.21,100.58l-14.94,2.35a6.61,6.61,0,1,1-2.64-13,285.83,285.83,0,0,0,55.16-16.78c90-37.29,104.43-111.13,13.27-159.58-51.45-26.89-110.9-35.83-168.63-34.48-57,2.36-117.17,14.55-162.46,50.45-30.48,24-42,62.25-16.52,94.26,36.12,44.82,96.9,61.1,152.2,69.09,10.21,1.5,8.22,16.72-2,15.63Z"/><ellipse class="cls-8" cx="1388.78" cy="1273.36" rx="20.51" ry="45.83" transform="translate(89.46 2637.89) rotate(-88.92)"/><ellipse class="cls-8" cx="1486.15" cy="1217.99" rx="16.6" ry="39.85" transform="translate(240.36 2680.91) rotate(-88.92)"/><ellipse class="cls-8" cx="1518.51" cy="1280.79" rx="15.53" ry="40.18" transform="translate(209.32 2774.89) rotate(-88.92)"/><path class="cls-8" d="M1609.19,1245.55c0,1.84-3.78,3.25-8.36,3.17s-8.28-1.65-8.24-3.48,3.78-3.25,8.36-3.16S1609.22,1243.72,1609.19,1245.55Z"/><path class="cls-8" d="M393.23,1273.06C275,1358.29,223.86,1489.27,278.92,1565.61l57.34,79.52c55.06,76.35,195.5,69.15,313.68-16.08s169.37-216.2,114.31-292.55L706.91,1257C651.85,1180.63,511.41,1187.83,393.23,1273.06Z"/><ellipse class="cls-9" cx="485.8" cy="1411.07" rx="230.67" ry="166.08" transform="translate(-733.57 550.69) rotate(-35.8)"/><g class="cls-5"><path class="cls-6" d="M700,1247.47a95.26,95.26,0,0,1,15.07,32.33c-57.21-55.54-184-39.69-294.55,40C318.88,1393.13,264.09,1496.61,283,1568.66a88.3,88.3,0,0,1-10.94-12.57c-50.5-70,4.31-195.87,122.54-281.13S649.53,1177.43,700,1247.47Z"/></g><path class="cls-2" d="M457.51,1714.92c-57.31,0-106.6-19.72-135.36-59.61l-57.35-79.52c-30.2-41.88-33.72-98.51-9.9-159.46,22.79-58.34,68.31-114.23,128.15-157.39s127.25-68.68,189.8-71.89c65.39-3.39,118,17.87,148.17,59.75l57.35,79.52c60.58,84,7.53,226.14-118.25,316.85C594.07,1690.8,520.89,1714.92,457.51,1714.92Zm128.54-493.4c-3.74,0-7.55.09-11.42.29-55.94,2.87-116.75,26.08-171.22,65.37h0c-54.48,39.28-95.71,89.65-116.09,141.82C268,1478.56,270,1523.47,293,1555.43L350.38,1635c49.35,68.45,179.17,59.46,289.38-20s159.72-199.82,110.37-268.26l-57.34-79.52C671.42,1237.52,633.78,1221.52,586.05,1221.52Zm-192.82,51.54h0Z"/><path class="cls-2" d="M546.69,1565.09c-58.63,35.33-132.25,56.19-199,29.67-78.47-34.53-87.24-122-53.73-192.32,39.87-84.26,119.37-146.88,208.13-172.72,66.85-19.81,157.46-12.78,194.29,55.53,29.27,54.85,8.2,119-24.53,166.26-5.4,8.16-14.74,18.78-21.1,26.36-5.31,6.11-14.59-1.64-9.62-7.93,37.78-47.37,68.61-116.58,37.45-174.53-20.92-37.52-65.5-52.37-106.71-51.67-64.34,1.09-125.89,29.87-175.4,70-48.53,40.26-90,96.09-95.74,160.13-5.8,71.55,49.77,113.29,117.41,111.76,42.23-.28,84-13.73,121.52-33.68,8.67-4.47,15.5,8.38,7,13.1Z"/><ellipse class="cls-8" cx="424.97" cy="1474.83" rx="47.16" ry="25.8" transform="translate(-782.36 527.16) rotate(-35.8)"/><ellipse class="cls-8" cx="463.27" cy="1358.51" rx="41.01" ry="20.89" transform="translate(-707.09 527.59) rotate(-35.8)"/><ellipse class="cls-8" cx="537.01" cy="1401.76" rx="41.35" ry="19.54" transform="translate(-718.45 578.89) rotate(-35.8)"/><path class="cls-8" d="M585,1309.9c1.35,1.87-.66,5.62-4.49,8.38s-8,3.48-9.37,1.61.66-5.62,4.48-8.38S583.61,1308,585,1309.9Z"/><path class="cls-10" d="M1249.89,1047c15.13-135,84.36-187.37,202.67-154.82,52.47,141.94-56.26,165.94-202.67,154.82"/><path class="cls-2" d="M1307,1063.8c-17.88,0-37.23-.8-58.16-2.39a14.5,14.5,0,0,1-13.31-16.08c8.38-74.79,33.26-126.69,74-154.25,37.18-25.18,86.63-29.53,147-12.93a14.5,14.5,0,0,1,9.76,9c20.11,54.39,18.87,97.13-3.68,127C1437.19,1047.64,1387.16,1063.8,1307,1063.8Zm-40.68-30.28c93.57,5.53,150.2-6.57,173-36.88,15.35-20.34,16.06-51.41,2.14-92.42-48.44-12-87.34-8.38-115.76,10.88C1295,935.92,1275,975.72,1266.27,1033.52Z"/><path class="cls-2" d="M1283.64,1025.41c16.36-22.47,31.81-40.33,50.44-60.67,18.64-21.16,49.46-41.37,79.46-37.09,5.89.46,6.6,9.11.91,10.54l-9.35,2.48c-36.12,10.43-56.11,44.4-82.4,69.05a351.72,351.72,0,0,1-31.7,26.51,6.27,6.27,0,0,1-8.77-1.27c-2.48-3.25-.85-6.83,1.41-9.55Z"/><path class="cls-10" d="M830.62,1472.28c48.4-98.82,115.49-119.84,196.82-62.72,1.25,122.57-88.21,111.18-196.82,62.72"/><path class="cls-2" d="M952.68,1522.78c-33,0-75.26-11.8-128.69-35.65a16.26,16.26,0,0,1-8-22c27.42-56,61.56-89.57,101.45-99.82,36.56-9.41,76.71,1,119.32,31a16.24,16.24,0,0,1,6.92,13.14c.5,48.6-12.8,82.13-39.52,99.67C990.28,1518.19,973.27,1522.78,952.68,1522.78Zm-99.53-58.49c65,27,109.72,33,133.18,17.58,15.54-10.2,23.86-31.61,24.78-63.72-31.7-20.61-60.46-27.79-85.56-21.34C898.7,1403.71,874.39,1426.38,853.15,1464.29Z"/><path class="cls-2" d="M862.24,1465.07c13.82-9.75,26.79-16.72,40.8-24.88,24.25-14.4,57.34-28.52,85.12-14.11,4.42,2,2.43,8.87-2.36,8.2-21.5-3.45-41.32,4.08-60,14.44-19.15,10.8-39.56,20.41-60.86,26.61a5.07,5.07,0,0,1-6.34-3.36c-1-3.09,1.24-5.47,3.68-6.9Z"/><path class="cls-10" d="M1224.32,588.75c43.17-88.13,103-106.88,175.52-55.93,1.12,109.3-78.66,99.14-175.52,55.93"/><path class="cls-2" d="M1333.18,633.77c-29.45,0-67.12-10.52-114.77-31.78a14.52,14.52,0,0,1-7.12-19.62c24.46-49.93,54.9-79.88,90.47-89,32.62-8.38,68.42.91,106.42,27.6a14.51,14.51,0,0,1,6.16,11.72c.45,43.34-11.41,73.24-35.25,88.88C1366.7,629.68,1351.54,633.77,1333.18,633.77Zm-88.77-52.15c57.92,24.13,97.84,29.41,118.77,15.68,13.86-9.1,21.28-28.19,22.1-56.83-28.28-18.38-53.91-24.78-76.3-19C1285,527.59,1263.36,547.81,1244.41,581.62Z"/><path class="cls-2" d="M1252.52,582.32c16.57-11.35,31.48-19.6,49.07-29,17.88-9.88,43.83-16.1,63.22-5.8,4,1.78,2.17,7.92-2.1,7.31-19.18-3.07-36.85,3.65-53.55,12.89-17.07,9.63-35.28,18.19-54.27,23.73a4.52,4.52,0,0,1-5.65-3c-.91-2.76,1.1-4.89,3.28-6.15Z"/><path class="cls-10" d="M935.67,1107.8c-43.16-88.13-103-106.88-175.52-55.93-1.12,109.3,78.66,99.15,175.52,55.93"/><path class="cls-2" d="M826.82,1152.83c-18.37,0-33.53-4.09-45.92-12.23-23.83-15.63-35.69-45.54-35.25-88.88a14.52,14.52,0,0,1,6.17-11.72c38-26.7,73.82-36,106.41-27.6,35.58,9.14,66,39.09,90.47,89a14.5,14.5,0,0,1-7.12,19.62C893.94,1142.3,856.27,1152.83,826.82,1152.83Zm-52.1-93.31c.81,28.64,8.23,47.74,22.09,56.83,20.92,13.73,60.84,8.45,118.77-15.67-18.94-33.81-40.62-54-64.57-60.19C828.63,1034.73,803,1041.15,774.72,1059.52Z"/><path class="cls-2" d="M905.1,1110.52c-41.61,3.91-70.06-30.35-109.23-37-4.14-.94-3.68-7.23.54-7.55,31-4.59,57,15.47,83.9,26.72a168.76,168.76,0,0,0,27.16,8.63,4.57,4.57,0,0,1,3.43,5.48c-.6,2.78-3.3,3.73-5.8,3.67Z"/><path class="cls-10" d="M2063.36,1372.79c-43.17-88.12-103-106.87-175.52-55.93-1.12,109.31,78.66,99.15,175.52,55.93"/><path class="cls-2" d="M1954.5,1417.82c-18.36,0-33.52-4.09-45.91-12.22-23.84-15.64-35.7-45.54-35.25-88.89a14.52,14.52,0,0,1,6.16-11.72c38-26.69,73.82-36,106.42-27.6,35.57,9.14,66,39.1,90.47,89a14.52,14.52,0,0,1-7.12,19.62C2021.62,1407.3,1984,1417.82,1954.5,1417.82Zm-52.1-93.3c.82,28.63,8.24,47.73,22.1,56.83,20.92,13.72,60.84,8.45,118.77-15.68-19-33.81-40.62-54-64.57-60.18C1956.3,1299.73,1930.67,1306.14,1902.4,1324.52Z"/><path class="cls-2" d="M2032.79,1375.51c-41.61,3.92-70.06-30.35-109.23-37-4.15-.93-3.69-7.23.54-7.54,31-4.6,57,15.47,83.9,26.71a169.8,169.8,0,0,0,27.16,8.64,4.57,4.57,0,0,1,3.43,5.48c-.6,2.77-3.3,3.72-5.8,3.66Z"/><ellipse class="cls-4" cx="1384.04" cy="772.26" rx="53.53" ry="29.2" transform="translate(-138.53 332.12) rotate(-13.04)"/><ellipse class="cls-4" cx="1042.7" cy="1217.99" rx="53.53" ry="29.2" transform="translate(-247.88 266.6) rotate(-13.04)"/><ellipse class="cls-4" cx="1493.83" cy="810.42" rx="29.25" ry="15.96" transform="translate(-144.31 357.87) rotate(-13.04)"/><ellipse class="cls-4" cx="628.34" cy="1124.92" rx="29.25" ry="15.96" transform="translate(-237.56 170.74) rotate(-13.04)"/><ellipse class="cls-4" cx="256.78" cy="1757.2" rx="29.25" ry="15.96" transform="translate(-389.77 103.22) rotate(-13.04)"/><ellipse class="cls-4" cx="1111.87" cy="1273.36" rx="29.25" ry="15.96" transform="translate(-258.59 283.64) rotate(-13.04)"/><ellipse class="cls-4" cx="1763.67" cy="1109.34" rx="29.25" ry="15.96" transform="translate(-204.79 426.44) rotate(-13.04)"/></g></g></svg>